<?xml version="1.0" standalone="no"?>
<!DOCTYPE svg PUBLIC "-//W3C//DTD SVG 20010904//EN"
 "http://www.w3.org/TR/2001/REC-SVG-20010904/DTD/svg10.dtd">
<svg version="1.0" xmlns="http://www.w3.org/2000/svg"
 width="500.000000pt" height="500.000000pt" viewBox="0 0 500.000000 500.000000"
 preserveAspectRatio="xMidYMid meet">

<g transform="translate(0.000000,500.000000) scale(0.100000,-0.100000)"
fill="#000000" stroke="none">
<path d="M1170 4478 c0 -1 9 -27 20 -57 33 -86 36 -185 10 -345 -41 -257 -14
-365 129 -518 l69 -73 16 37 c57 133 51 351 -14 545 -26 76 -2 49 46 -54 87
-185 96 -372 24 -520 -40 -81 -93 -134 -216 -214 -249 -165 -420 -350 -520
-565 -45 -97 -83 -232 -89 -318 -4 -55 -3 -63 5 -36 5 19 23 76 40 125 164
465 537 752 1005 772 230 10 418 -29 630 -131 99 -47 219 -116 203 -116 -4 0
-53 16 -110 35 -168 56 -263 68 -478 62 -144 -5 -210 -11 -297 -31 -111 -24
-309 -88 -325 -104 -5 -5 26 -38 69 -74 228 -191 410 -271 618 -270 117 0 149
6 395 72 246 66 379 84 540 76 69 -3 153 -12 188 -19 34 -8 62 -12 62 -11 0 2
-56 49 -124 106 -367 307 -741 500 -1074 554 -110 18 -297 18 -382 0 -36 -8
-66 -13 -68 -11 -1 1 9 27 22 58 57 127 72 292 41 425 -33 141 -127 300 -257
437 -70 74 -178 173 -178 163z"/>
<path d="M1433 3156 c-388 -127 -657 -433 -739 -839 -25 -122 -15 -361 20
-485 109 -391 406 -673 813 -774 133 -33 360 -30 498 6 244 63 474 220 617
421 45 63 128 214 128 232 0 3 -27 -35 -61 -86 -358 -544 -1120 -624 -1580
-168 -447 444 -399 1167 103 1553 72 56 191 120 276 150 37 12 58 23 47 23
-11 0 -66 -15 -122 -33z"/>
<path d="M1640 1900 l0 -280 45 0 c32 0 45 4 45 14 0 10 9 9 40 -6 51 -26 98
-18 145 23 79 69 69 226 -17 279 -39 24 -106 26 -134 5 -10 -8 -22 -15 -26
-15 -5 0 -8 59 -8 130 l0 130 -45 0 -45 0 0 -280z m211 -49 c56 -56 24 -161
-49 -161 -73 0 -107 116 -49 166 37 32 62 30 98 -5z"/>
<path d="M2950 1995 c0 -42 -3 -55 -15 -55 -10 0 -15 -11 -15 -35 0 -24 5 -35
15 -35 13 0 15 -21 15 -125 l0 -125 45 0 45 0 0 125 0 125 25 0 c22 0 25 4 25
35 0 31 -3 35 -25 35 -24 0 -25 3 -25 55 l0 55 -45 0 -45 0 0 -55z"/>
<path d="M1059 1923 c-40 -34 -59 -79 -59 -138 0 -125 104 -206 200 -156 33
17 40 18 40 6 0 -11 11 -15 40 -15 l40 0 0 160 0 160 -39 0 c-22 0 -41 -5 -43
-12 -3 -8 -11 -7 -28 5 -39 27 -112 22 -151 -10z m142 -53 c29 -16 52 -68 45
-103 -22 -110 -157 -96 -156 15 1 45 12 67 45 86 25 14 41 15 66 2z"/>
<path d="M1510 1930 c-16 -16 -20 -17 -20 -5 0 11 -12 15 -45 15 l-45 0 0
-160 0 -160 45 0 45 0 0 105 c0 100 1 107 26 132 20 20 32 24 55 19 26 -5 29
-3 29 18 0 14 3 31 6 40 10 25 -70 22 -96 -4z"/>
<path d="M2080 1931 c-72 -38 -101 -151 -60 -232 50 -97 191 -116 267 -37 78
81 58 224 -37 273 -41 21 -128 19 -170 -4z m121 -61 c29 -16 52 -68 45 -103
-15 -73 -85 -100 -131 -51 -36 39 -34 96 4 135 31 31 51 35 82 19z"/>
<path d="M2500 1933 c-17 -12 -25 -13 -28 -5 -2 7 -21 12 -43 12 l-39 0 0
-160 0 -160 39 0 39 0 4 116 c3 107 5 117 27 135 28 23 41 24 67 5 17 -13 19
-30 23 -135 l3 -121 40 0 40 0 -4 141 c-3 140 -3 141 -31 165 -34 29 -100 33
-137 7z"/>
<path d="M3180 1931 c-72 -38 -101 -151 -60 -232 50 -97 191 -116 267 -37 78
81 58 224 -37 273 -41 21 -128 19 -170 -4z m121 -61 c29 -16 52 -68 45 -103
-15 -73 -85 -100 -131 -51 -36 39 -34 96 4 135 31 31 51 35 82 19z"/>
<path d="M3596 1929 c-21 -17 -26 -18 -26 -5 0 12 -10 16 -40 16 l-40 0 0
-160 0 -160 40 0 40 0 0 83 c0 137 23 183 88 175 25 -3 27 0 30 35 3 36 2 37
-31 37 -20 0 -46 -9 -61 -21z"/>
</g>
</svg>
