<svg xmlns="http://www.w3.org/2000/svg" xmlns:xlink="http://www.w3.org/1999/xlink" width="400" zoomAndPan="magnify" viewBox="0 0 300 79.499998" height="106" preserveAspectRatio="xMidYMid meet" version="1.0"><defs><g/><clipPath id="92c52b765f"><path d="M 185.945312 31 L 214 31 L 214 64.5 L 185.945312 64.5 Z M 185.945312 31 " clip-rule="nonzero"/></clipPath></defs><path fill="#2e7d32" d="M 36.257812 55.507812 C 28.457031 62.042969 16.828125 61.015625 10.304688 53.203125 C 3.769531 45.402344 4.796875 33.773438 12.609375 27.25 C 15.296875 25 18.441406 23.644531 21.664062 23.152344 C 17.625 23.398438 13.617188 24.886719 10.28125 27.683594 C 1.988281 34.625 0.894531 46.980469 7.84375 55.273438 C 14.78125 63.566406 27.136719 64.664062 35.429688 57.710938 C 38.777344 54.914062 40.949219 51.230469 41.898438 47.304688 C 40.847656 50.394531 38.964844 53.246094 36.28125 55.507812 Z M 14.546875 27.472656 C 29.050781 40.992188 33.304688 27.753906 48.894531 31.679688 C 30.652344 15.09375 18.890625 19.875 18.890625 19.875 C 24.867188 9.085938 12.007812 0.152344 12.007812 0.152344 C 15.554688 7.316406 8.179688 11.089844 16.371094 18.285156 C 18.957031 13.191406 15.992188 6.710938 15.992188 6.710938 C 18.363281 10.226562 19.304688 14.757812 17.511719 18.207031 C 16.238281 20.65625 14.390625 21.316406 12.308594 22.792969 C 1.710938 30.304688 2.628906 39.695312 2.628906 39.695312 C 6.289062 22.210938 23.601562 17.746094 36.761719 26.847656 C 25.894531 21.910156 14.535156 27.460938 14.535156 27.460938 Z M 14.546875 27.472656 " fill-opacity="1" fill-rule="evenodd"/><g clip-path="url(#92c52b765f)"><path fill="#55a935" d="M 193.257812 36.671875 C 194.074219 36.695312 194.886719 36.777344 195.699219 36.882812 C 196.105469 36.9375 196.511719 37 196.917969 37.070312 C 197.320312 37.144531 197.722656 37.226562 198.125 37.316406 C 198.925781 37.492188 199.722656 37.710938 200.507812 37.964844 C 200.902344 38.089844 201.292969 38.230469 201.679688 38.378906 C 202.066406 38.527344 202.449219 38.6875 202.828125 38.859375 C 203.207031 39.027344 203.582031 39.210938 203.949219 39.410156 C 204.316406 39.609375 204.683594 39.816406 205.035156 40.042969 C 205.390625 40.265625 205.738281 40.503906 206.078125 40.757812 C 206.414062 41.011719 206.742188 41.28125 207.054688 41.566406 C 207.371094 41.851562 207.671875 42.152344 207.960938 42.46875 C 208.246094 42.789062 208.515625 43.121094 208.769531 43.46875 C 209.023438 43.816406 209.25 44.183594 209.464844 44.558594 C 209.675781 44.933594 209.863281 45.324219 210.035156 45.722656 L 210.199219 46.109375 L 209.90625 46.441406 L 209.808594 46.550781 L 209.714844 46.652344 C 209.652344 46.722656 209.589844 46.785156 209.527344 46.851562 C 209.402344 46.980469 209.273438 47.101562 209.144531 47.226562 C 208.886719 47.472656 208.617188 47.707031 208.339844 47.933594 C 207.789062 48.382812 207.203125 48.796875 206.585938 49.164062 C 206.273438 49.347656 205.957031 49.523438 205.628906 49.679688 C 205.304688 49.839844 204.96875 49.984375 204.625 50.113281 L 204.363281 50.207031 C 204.277344 50.234375 204.1875 50.261719 204.101562 50.292969 C 203.925781 50.351562 203.746094 50.394531 203.566406 50.445312 C 203.207031 50.53125 202.84375 50.609375 202.46875 50.660156 C 202.101562 50.714844 201.722656 50.734375 201.347656 50.746094 C 201.253906 50.746094 201.15625 50.742188 201.0625 50.742188 C 200.96875 50.738281 200.875 50.742188 200.78125 50.734375 C 200.589844 50.71875 200.402344 50.710938 200.214844 50.683594 C 199.460938 50.597656 198.722656 50.40625 198.019531 50.136719 C 197.316406 49.867188 196.652344 49.515625 196.035156 49.113281 C 195.417969 48.707031 194.84375 48.25 194.3125 47.761719 C 193.777344 47.269531 193.292969 46.738281 192.828125 46.199219 C 192.605469 45.921875 192.375 45.648438 192.164062 45.363281 C 192.058594 45.222656 191.949219 45.082031 191.847656 44.9375 L 191.542969 44.503906 C 191.492188 44.433594 191.441406 44.363281 191.390625 44.289062 L 190.957031 43.625 C 190.769531 43.328125 190.589844 43.027344 190.410156 42.730469 C 190.242188 42.425781 190.0625 42.121094 189.898438 41.816406 C 189.738281 41.507812 189.570312 41.203125 189.414062 40.890625 C 189.261719 40.582031 189.101562 40.269531 188.953125 39.957031 C 188.808594 39.644531 188.660156 39.332031 188.519531 39.015625 L 188.105469 38.066406 L 187.714844 37.109375 C 187.582031 36.789062 187.464844 36.464844 187.34375 36.144531 C 187.28125 35.984375 187.21875 35.824219 187.160156 35.660156 L 186.984375 35.175781 C 186.75 34.53125 186.535156 33.878906 186.316406 33.230469 L 185.941406 32.128906 L 187.074219 31.851562 L 187.308594 31.792969 L 187.523438 31.742188 C 187.667969 31.710938 187.8125 31.679688 187.957031 31.652344 C 188.246094 31.59375 188.53125 31.542969 188.816406 31.492188 C 189.390625 31.398438 189.964844 31.316406 190.542969 31.25 C 191.695312 31.121094 192.855469 31.046875 194.019531 31.039062 C 195.179688 31.027344 196.347656 31.09375 197.511719 31.226562 C 198.089844 31.296875 198.671875 31.382812 199.25 31.492188 C 199.824219 31.601562 200.398438 31.734375 200.96875 31.890625 C 201.539062 32.046875 202.101562 32.230469 202.65625 32.4375 C 203.210938 32.648438 203.757812 32.878906 204.292969 33.140625 C 205.359375 33.667969 206.382812 34.296875 207.3125 35.054688 C 208.246094 35.800781 209.082031 36.664062 209.8125 37.601562 C 209.910156 37.714844 209.992188 37.839844 210.078125 37.957031 C 210.164062 38.078125 210.257812 38.199219 210.335938 38.320312 L 210.582031 38.691406 L 210.703125 38.878906 L 210.816406 39.070312 L 211.042969 39.449219 C 211.117188 39.578125 211.183594 39.710938 211.253906 39.839844 C 211.324219 39.96875 211.398438 40.097656 211.460938 40.230469 L 211.652344 40.625 L 211.746094 40.824219 C 211.777344 40.890625 211.804688 40.960938 211.835938 41.027344 L 212.007812 41.429688 C 212.070312 41.5625 212.117188 41.703125 212.171875 41.839844 L 212.328125 42.246094 C 212.425781 42.523438 212.511719 42.800781 212.605469 43.074219 L 212.84375 43.914062 L 213.050781 44.757812 L 213.226562 45.605469 L 213.230469 45.628906 L 213.234375 45.644531 C 213.214844 45.566406 213.230469 45.628906 213.226562 45.617188 L 213.242188 45.675781 L 213.265625 45.785156 L 213.3125 45.996094 C 213.34375 46.140625 213.371094 46.28125 213.398438 46.421875 C 213.449219 46.703125 213.5 46.988281 213.542969 47.269531 C 213.71875 48.402344 213.832031 49.539062 213.878906 50.679688 C 213.925781 51.820312 213.90625 52.964844 213.792969 54.105469 C 213.679688 55.246094 213.480469 56.382812 213.148438 57.484375 C 212.816406 58.585938 212.355469 59.65625 211.71875 60.625 C 211.402344 61.105469 211.046875 61.5625 210.648438 61.976562 C 210.25 62.394531 209.8125 62.769531 209.34375 63.097656 C 208.40625 63.75 207.347656 64.210938 206.261719 64.488281 L 206.652344 64.332031 C 206.78125 64.28125 206.90625 64.21875 207.035156 64.160156 C 207.164062 64.105469 207.289062 64.039062 207.414062 63.976562 L 207.597656 63.882812 L 207.78125 63.78125 C 208.265625 63.507812 208.71875 63.191406 209.140625 62.832031 C 209.984375 62.125 210.671875 61.257812 211.191406 60.308594 C 211.710938 59.355469 212.074219 58.324219 212.3125 57.265625 C 212.550781 56.207031 212.675781 55.121094 212.710938 54.035156 C 212.753906 52.945312 212.710938 51.851562 212.605469 50.765625 C 212.5 49.675781 212.335938 48.59375 212.117188 47.523438 C 212.0625 47.257812 212 46.992188 211.9375 46.726562 C 211.90625 46.597656 211.875 46.464844 211.84375 46.335938 L 211.730469 45.914062 L 211.535156 45.128906 L 211.308594 44.351562 L 211.054688 43.585938 C 210.957031 43.335938 210.867188 43.085938 210.765625 42.835938 L 210.609375 42.46875 C 210.558594 42.34375 210.507812 42.21875 210.449219 42.101562 L 210.277344 41.738281 C 210.25 41.679688 210.222656 41.621094 210.191406 41.558594 L 210.101562 41.382812 C 209.609375 40.441406 209.039062 39.550781 208.367188 38.742188 C 207.699219 37.933594 206.949219 37.195312 206.113281 36.566406 C 206.007812 36.488281 205.90625 36.40625 205.796875 36.332031 L 205.476562 36.109375 C 205.367188 36.03125 205.253906 35.964844 205.144531 35.894531 C 205.035156 35.824219 204.925781 35.75 204.8125 35.6875 L 204.472656 35.488281 L 204.125 35.300781 C 204.066406 35.269531 204.011719 35.234375 203.953125 35.207031 L 203.773438 35.117188 C 203.65625 35.0625 203.539062 35 203.421875 34.945312 C 202.941406 34.722656 202.453125 34.527344 201.953125 34.347656 C 201.453125 34.175781 200.945312 34.023438 200.429688 33.886719 C 199.914062 33.757812 199.394531 33.644531 198.867188 33.550781 C 198.339844 33.457031 197.808594 33.382812 197.273438 33.324219 C 196.203125 33.214844 195.121094 33.171875 194.039062 33.183594 C 192.957031 33.199219 191.871094 33.269531 190.792969 33.394531 C 190.253906 33.460938 189.71875 33.535156 189.183594 33.628906 C 188.917969 33.671875 188.652344 33.722656 188.390625 33.777344 C 188.257812 33.800781 188.125 33.828125 187.996094 33.859375 L 187.804688 33.902344 L 187.628906 33.945312 L 188.386719 32.5625 C 188.597656 33.195312 188.800781 33.828125 189.027344 34.453125 L 189.195312 34.925781 C 189.25 35.082031 189.3125 35.234375 189.371094 35.390625 C 189.488281 35.699219 189.597656 36.015625 189.722656 36.320312 L 190.09375 37.242188 L 190.480469 38.15625 C 190.613281 38.457031 190.753906 38.757812 190.886719 39.058594 C 191.023438 39.359375 191.171875 39.652344 191.3125 39.949219 C 191.457031 40.246094 191.613281 40.535156 191.761719 40.828125 C 191.914062 41.121094 192.074219 41.402344 192.230469 41.691406 C 192.394531 41.972656 192.5625 42.253906 192.730469 42.535156 L 192.988281 42.945312 L 193.117188 43.152344 C 193.164062 43.222656 193.207031 43.289062 193.253906 43.355469 L 193.523438 43.757812 C 193.617188 43.890625 193.714844 44.019531 193.808594 44.152344 C 193.992188 44.414062 194.195312 44.664062 194.394531 44.917969 C 194.800781 45.410156 195.222656 45.890625 195.679688 46.324219 C 196.132812 46.757812 196.613281 47.164062 197.117188 47.515625 C 197.625 47.871094 198.160156 48.171875 198.71875 48.402344 C 199.277344 48.636719 199.859375 48.796875 200.453125 48.886719 C 200.601562 48.917969 200.75 48.925781 200.902344 48.941406 C 200.976562 48.953125 201.050781 48.953125 201.125 48.957031 C 201.199219 48.960938 201.277344 48.964844 201.351562 48.96875 C 201.652344 48.96875 201.957031 48.964844 202.257812 48.929688 C 202.5625 48.902344 202.863281 48.847656 203.167969 48.785156 C 203.316406 48.75 203.46875 48.71875 203.617188 48.671875 C 203.691406 48.652344 203.765625 48.632812 203.839844 48.609375 L 204.0625 48.539062 C 204.136719 48.515625 204.210938 48.488281 204.28125 48.460938 C 204.355469 48.433594 204.429688 48.410156 204.503906 48.382812 C 204.648438 48.324219 204.796875 48.269531 204.941406 48.203125 C 205.230469 48.078125 205.511719 47.9375 205.792969 47.785156 C 206.351562 47.484375 206.894531 47.136719 207.410156 46.753906 C 207.667969 46.558594 207.917969 46.359375 208.164062 46.148438 C 208.285156 46.046875 208.40625 45.941406 208.519531 45.832031 C 208.578125 45.777344 208.636719 45.722656 208.691406 45.667969 L 208.777344 45.585938 L 208.847656 45.511719 L 208.71875 46.230469 C 208.207031 44.804688 207.351562 43.496094 206.257812 42.390625 C 205.984375 42.113281 205.699219 41.847656 205.402344 41.59375 C 205.105469 41.339844 204.792969 41.097656 204.472656 40.863281 C 204.15625 40.628906 203.824219 40.414062 203.488281 40.203125 C 203.152344 39.992188 202.808594 39.792969 202.457031 39.605469 C 201.753906 39.222656 201.023438 38.886719 200.28125 38.578125 C 199.539062 38.273438 198.777344 38.003906 198.003906 37.761719 C 197.617188 37.640625 197.230469 37.527344 196.835938 37.421875 C 196.445312 37.316406 196.050781 37.214844 195.65625 37.125 C 195.261719 37.03125 194.863281 36.949219 194.460938 36.871094 C 194.0625 36.796875 193.660156 36.726562 193.257812 36.671875 " fill-opacity="1" fill-rule="nonzero"/></g><path fill="#9cd421" d="M 222.015625 32.320312 C 221.824219 32.496094 221.640625 32.675781 221.457031 32.859375 C 221.277344 33.042969 221.097656 33.226562 220.921875 33.414062 L 220.664062 33.695312 L 220.410156 33.984375 L 220.164062 34.273438 L 219.921875 34.570312 C 219.761719 34.765625 219.605469 34.96875 219.457031 35.171875 C 219.378906 35.269531 219.308594 35.375 219.234375 35.476562 C 219.160156 35.578125 219.085938 35.679688 219.019531 35.785156 C 218.875 35.992188 218.746094 36.207031 218.609375 36.417969 L 218.421875 36.738281 C 218.359375 36.84375 218.300781 36.953125 218.238281 37.0625 C 218.179688 37.171875 218.125 37.28125 218.070312 37.390625 C 218.015625 37.5 217.960938 37.613281 217.910156 37.722656 C 217.859375 37.835938 217.808594 37.945312 217.761719 38.058594 L 217.625 38.394531 C 217.582031 38.507812 217.542969 38.625 217.503906 38.738281 C 217.484375 38.792969 217.464844 38.851562 217.445312 38.90625 L 217.398438 39.082031 C 217.324219 39.308594 217.277344 39.539062 217.222656 39.769531 C 217.183594 40.003906 217.136719 40.234375 217.121094 40.464844 C 217.109375 40.582031 217.09375 40.695312 217.09375 40.8125 C 217.09375 40.925781 217.085938 41.042969 217.082031 41.15625 L 217.09375 41.5 L 217.097656 41.585938 C 217.101562 41.613281 217.105469 41.640625 217.109375 41.667969 L 217.125 41.839844 C 217.140625 42.066406 217.199219 42.285156 217.238281 42.507812 L 216.671875 41.875 L 216.792969 41.902344 L 216.929688 41.925781 C 217.023438 41.945312 217.121094 41.957031 217.214844 41.972656 C 217.40625 42 217.601562 42.023438 217.796875 42.039062 C 218.183594 42.066406 218.574219 42.070312 218.953125 42.042969 C 219.332031 42.015625 219.707031 41.964844 220.0625 41.875 C 220.417969 41.785156 220.761719 41.667969 221.074219 41.507812 C 221.230469 41.433594 221.378906 41.34375 221.527344 41.253906 C 221.667969 41.15625 221.808594 41.054688 221.9375 40.945312 C 222.199219 40.722656 222.429688 40.46875 222.628906 40.183594 C 222.828125 39.898438 223.003906 39.589844 223.148438 39.257812 C 223.292969 38.925781 223.410156 38.574219 223.503906 38.207031 C 223.601562 37.84375 223.660156 37.464844 223.71875 37.078125 C 223.738281 36.886719 223.765625 36.691406 223.777344 36.496094 C 223.785156 36.398438 223.796875 36.300781 223.800781 36.199219 L 223.8125 35.902344 C 223.820312 35.804688 223.824219 35.703125 223.824219 35.605469 L 223.828125 35.304688 C 223.824219 35.105469 223.820312 34.902344 223.816406 34.699219 C 223.804688 34.5 223.800781 34.296875 223.789062 34.09375 C 223.773438 33.890625 223.761719 33.6875 223.742188 33.484375 C 223.722656 33.28125 223.707031 33.078125 223.683594 32.871094 L 223.605469 32.261719 L 223.519531 31.648438 L 223.417969 31.035156 C 223.386719 30.832031 223.347656 30.625 223.308594 30.421875 C 223.273438 30.21875 223.234375 30.011719 223.191406 29.808594 C 223.113281 29.398438 223.015625 28.992188 222.929688 28.585938 L 224.238281 29.328125 L 224.183594 29.34375 L 224.117188 29.367188 L 223.980469 29.410156 C 223.886719 29.441406 223.792969 29.472656 223.699219 29.503906 C 223.511719 29.570312 223.324219 29.640625 223.140625 29.710938 C 222.765625 29.855469 222.398438 30.015625 222.03125 30.183594 C 221.300781 30.515625 220.585938 30.890625 219.90625 31.3125 C 219.222656 31.730469 218.570312 32.191406 217.96875 32.707031 C 217.664062 32.960938 217.371094 33.226562 217.09375 33.507812 C 216.816406 33.792969 216.554688 34.085938 216.308594 34.394531 C 216.0625 34.703125 215.832031 35.019531 215.628906 35.355469 C 215.425781 35.691406 215.234375 36.039062 215.070312 36.398438 C 214.90625 36.753906 214.773438 37.128906 214.65625 37.507812 C 214.59375 37.695312 214.550781 37.890625 214.5 38.085938 C 214.460938 38.28125 214.417969 38.476562 214.386719 38.675781 C 214.351562 38.871094 214.332031 39.074219 214.304688 39.273438 C 214.292969 39.476562 214.269531 39.679688 214.269531 39.882812 C 214.246094 40.289062 214.265625 40.699219 214.292969 41.113281 C 214.308594 41.316406 214.324219 41.523438 214.351562 41.730469 L 214.394531 42.039062 L 214.441406 42.347656 C 214.457031 42.453125 214.476562 42.554688 214.5 42.65625 L 214.558594 42.96875 C 214.601562 43.171875 214.652344 43.378906 214.699219 43.585938 C 214.609375 43.394531 214.515625 43.203125 214.429688 43.007812 C 214.351562 42.8125 214.261719 42.617188 214.195312 42.414062 L 214.085938 42.113281 C 214.050781 42.011719 214.023438 41.910156 213.988281 41.808594 C 213.921875 41.605469 213.871094 41.394531 213.816406 41.1875 C 213.71875 40.769531 213.636719 40.34375 213.585938 39.910156 C 213.558594 39.695312 213.550781 39.476562 213.535156 39.257812 C 213.527344 39.039062 213.519531 38.820312 213.527344 38.601562 C 213.527344 38.378906 213.546875 38.160156 213.5625 37.9375 C 213.589844 37.71875 213.609375 37.496094 213.652344 37.277344 C 213.722656 36.839844 213.828125 36.402344 213.96875 35.980469 C 214.105469 35.554688 214.269531 35.132812 214.46875 34.730469 C 214.664062 34.324219 214.886719 33.933594 215.132812 33.558594 C 215.617188 32.800781 216.203125 32.117188 216.835938 31.484375 C 217.472656 30.859375 218.164062 30.292969 218.886719 29.78125 C 219.617188 29.277344 220.375 28.820312 221.160156 28.414062 C 221.554688 28.210938 221.953125 28.023438 222.363281 27.847656 C 222.566406 27.757812 222.769531 27.671875 222.980469 27.589844 C 223.082031 27.546875 223.1875 27.507812 223.296875 27.46875 L 223.457031 27.410156 L 223.542969 27.382812 L 223.636719 27.351562 L 224.671875 27.003906 L 224.949219 28.09375 C 225.054688 28.519531 225.164062 28.941406 225.257812 29.371094 C 225.304688 29.582031 225.355469 29.796875 225.398438 30.011719 C 225.441406 30.230469 225.488281 30.441406 225.527344 30.660156 L 225.648438 31.308594 L 225.746094 31.964844 L 225.835938 32.625 C 225.863281 32.847656 225.882812 33.070312 225.90625 33.289062 C 225.925781 33.511719 225.941406 33.738281 225.960938 33.960938 C 225.972656 34.183594 225.984375 34.410156 225.992188 34.632812 C 225.996094 34.859375 226 35.085938 226 35.3125 L 225.992188 35.652344 C 225.992188 35.765625 225.988281 35.878906 225.980469 35.996094 L 225.964844 36.335938 C 225.957031 36.453125 225.945312 36.566406 225.933594 36.679688 C 225.917969 36.910156 225.886719 37.140625 225.855469 37.371094 C 225.789062 37.832031 225.699219 38.296875 225.566406 38.757812 C 225.4375 39.214844 225.273438 39.675781 225.066406 40.121094 C 224.859375 40.570312 224.605469 41.003906 224.292969 41.410156 C 223.980469 41.8125 223.617188 42.183594 223.210938 42.5 C 222.808594 42.820312 222.359375 43.085938 221.894531 43.285156 C 221.425781 43.488281 220.945312 43.625 220.460938 43.71875 C 220.21875 43.765625 219.976562 43.796875 219.734375 43.820312 C 219.492188 43.84375 219.253906 43.855469 219.011719 43.855469 C 218.535156 43.855469 218.0625 43.816406 217.597656 43.75 C 217.367188 43.714844 217.136719 43.675781 216.90625 43.625 C 216.789062 43.597656 216.675781 43.570312 216.558594 43.539062 L 216.382812 43.492188 L 216.296875 43.464844 L 216.191406 43.433594 L 215.671875 43.269531 L 215.628906 42.800781 C 215.601562 42.511719 215.554688 42.230469 215.558594 41.941406 L 215.554688 41.726562 L 215.550781 41.621094 L 215.554688 41.511719 L 215.578125 41.085938 C 215.589844 40.945312 215.613281 40.804688 215.628906 40.664062 C 215.644531 40.523438 215.675781 40.386719 215.703125 40.246094 C 215.753906 39.96875 215.835938 39.703125 215.90625 39.433594 C 215.996094 39.171875 216.082031 38.90625 216.191406 38.65625 L 216.273438 38.464844 C 216.296875 38.402344 216.328125 38.339844 216.359375 38.277344 C 216.417969 38.15625 216.472656 38.03125 216.539062 37.910156 L 216.734375 37.550781 C 216.796875 37.433594 216.871094 37.320312 216.941406 37.203125 C 217.007812 37.085938 217.082031 36.976562 217.15625 36.863281 C 217.234375 36.753906 217.304688 36.640625 217.386719 36.535156 C 217.464844 36.425781 217.542969 36.316406 217.625 36.210938 L 217.871094 35.898438 C 218.039062 35.691406 218.210938 35.488281 218.390625 35.292969 C 218.476562 35.195312 218.566406 35.097656 218.660156 35.003906 C 218.75 34.910156 218.839844 34.8125 218.933594 34.722656 C 219.121094 34.535156 219.3125 34.359375 219.507812 34.179688 L 219.800781 33.921875 L 220.101562 33.667969 C 220.304688 33.503906 220.507812 33.339844 220.71875 33.1875 C 220.929688 33.03125 221.140625 32.878906 221.355469 32.734375 C 221.570312 32.589844 221.789062 32.449219 222.015625 32.320312 " fill-opacity="1" fill-rule="nonzero"/><g fill="#2e7d32" fill-opacity="1"><g transform="translate(28.465061, 60.615226)"><g/></g></g><g fill="#2e7d32" fill-opacity="1"><g transform="translate(47.757353, 60.615226)"><g><path d="M 15.9375 -20.8125 L 21.78125 -20.8125 L 21.78125 0 L 15.9375 0 L 15.9375 -1.90625 L 15.84375 -1.90625 C 15.226562 -1.082031 14.40625 -0.445312 13.375 0 C 12.34375 0.445312 11.289062 0.671875 10.21875 0.671875 C 7.476562 0.671875 5.195312 -0.40625 3.375 -2.5625 C 1.550781 -4.726562 0.640625 -7.378906 0.640625 -10.515625 C 0.640625 -12.460938 1.035156 -14.269531 1.828125 -15.9375 C 2.617188 -17.601562 3.738281 -18.941406 5.1875 -19.953125 C 6.644531 -20.972656 8.289062 -21.484375 10.125 -21.484375 C 11.195312 -21.484375 12.25 -21.253906 13.28125 -20.796875 C 14.3125 -20.347656 15.195312 -19.703125 15.9375 -18.859375 Z M 11.53125 -16.234375 C 10.195312 -16.234375 9.050781 -15.660156 8.09375 -14.515625 C 7.132812 -13.367188 6.65625 -12.003906 6.65625 -10.421875 C 6.65625 -8.835938 7.132812 -7.46875 8.09375 -6.3125 C 9.050781 -5.15625 10.207031 -4.578125 11.5625 -4.578125 C 12.945312 -4.578125 14.117188 -5.148438 15.078125 -6.296875 C 16.046875 -7.441406 16.53125 -8.816406 16.53125 -10.421875 C 16.53125 -12.035156 16.039062 -13.40625 15.0625 -14.53125 C 14.09375 -15.664062 12.914062 -16.234375 11.53125 -16.234375 Z M 11.53125 -16.234375 "/></g></g></g><g fill="#2e7d32" fill-opacity="1"><g transform="translate(78.737882, 60.615226)"><g><path d="M 15.046875 -15.46875 C 14.304688 -15.976562 13.484375 -16.234375 12.578125 -16.234375 C 11.054688 -16.234375 9.921875 -15.71875 9.171875 -14.6875 C 8.421875 -13.65625 8.046875 -11.953125 8.046875 -9.578125 L 8.046875 0 L 2.125 0 L 2.125 -20.8125 L 8.046875 -20.8125 L 8.046875 -18.640625 L 8.140625 -18.640625 C 8.734375 -19.546875 9.46875 -20.242188 10.34375 -20.734375 C 11.21875 -21.234375 12.207031 -21.484375 13.3125 -21.484375 C 14.125 -21.453125 14.941406 -21.28125 15.765625 -20.96875 Z M 15.046875 -15.46875 "/></g></g></g><g fill="#2e7d32" fill-opacity="1"><g transform="translate(101.327259, 60.615226)"><g><path d="M 8.046875 -35.9375 L 8.046875 -18.90625 C 8.785156 -19.71875 9.660156 -20.347656 10.671875 -20.796875 C 11.691406 -21.253906 12.738281 -21.484375 13.8125 -21.484375 C 15.5625 -21.484375 17.171875 -20.988281 18.640625 -20 C 20.109375 -19.007812 21.253906 -17.660156 22.078125 -15.953125 C 22.898438 -14.242188 23.3125 -12.429688 23.3125 -10.515625 C 23.3125 -8.453125 22.898438 -6.550781 22.078125 -4.8125 C 21.253906 -3.070312 20.101562 -1.722656 18.625 -0.765625 C 17.144531 0.191406 15.5 0.671875 13.6875 0.671875 C 12.613281 0.671875 11.566406 0.445312 10.546875 0 C 9.535156 -0.445312 8.734375 -1.097656 8.140625 -1.953125 L 8.046875 -1.953125 L 8.046875 0 L 2.125 0 L 2.125 -35.9375 Z M 12.328125 -16.234375 C 11.003906 -16.234375 9.859375 -15.660156 8.890625 -14.515625 C 7.929688 -13.367188 7.453125 -12.003906 7.453125 -10.421875 C 7.453125 -8.816406 7.929688 -7.441406 8.890625 -6.296875 C 9.859375 -5.148438 11.019531 -4.578125 12.375 -4.578125 C 13.8125 -4.578125 14.988281 -5.171875 15.90625 -6.359375 C 16.820312 -7.546875 17.28125 -8.898438 17.28125 -10.421875 C 17.28125 -11.953125 16.816406 -13.300781 15.890625 -14.46875 C 14.960938 -15.644531 13.773438 -16.234375 12.328125 -16.234375 Z M 12.328125 -16.234375 "/></g></g></g><g fill="#2e7d32" fill-opacity="1"><g transform="translate(132.307794, 60.615226)"><g><path d="M 0.671875 -10.375 C 0.671875 -13.65625 1.703125 -16.328125 3.765625 -18.390625 C 5.828125 -20.453125 8.441406 -21.484375 11.609375 -21.484375 C 14.828125 -21.484375 17.453125 -20.4375 19.484375 -18.34375 C 21.523438 -16.257812 22.546875 -13.601562 22.546875 -10.375 C 22.546875 -7.132812 21.519531 -4.484375 19.46875 -2.421875 C 17.425781 -0.359375 14.804688 0.671875 11.609375 0.671875 C 8.421875 0.671875 5.800781 -0.363281 3.75 -2.4375 C 1.695312 -4.507812 0.671875 -7.15625 0.671875 -10.375 Z M 11.5625 -16.234375 C 10.238281 -16.234375 9.09375 -15.660156 8.125 -14.515625 C 7.164062 -13.367188 6.6875 -11.988281 6.6875 -10.375 C 6.6875 -8.820312 7.164062 -7.46875 8.125 -6.3125 C 9.09375 -5.15625 10.253906 -4.578125 11.609375 -4.578125 C 13.023438 -4.578125 14.195312 -5.15625 15.125 -6.3125 C 16.0625 -7.46875 16.53125 -8.820312 16.53125 -10.375 C 16.53125 -11.90625 16.066406 -13.265625 15.140625 -14.453125 C 14.222656 -15.640625 13.03125 -16.234375 11.5625 -16.234375 Z M 11.5625 -16.234375 "/></g></g></g><g fill="#2e7d32" fill-opacity="1"><g transform="translate(162.567873, 60.615226)"><g><path d="M 20.765625 0 L 14.828125 0 L 14.828125 -12.03125 C 14.828125 -13.5625 14.597656 -14.726562 14.140625 -15.53125 C 13.691406 -16.332031 12.847656 -16.734375 11.609375 -16.734375 C 10.484375 -16.734375 9.609375 -16.285156 8.984375 -15.390625 C 8.359375 -14.503906 8.046875 -12.960938 8.046875 -10.765625 L 8.046875 0 L 2.125 0 L 2.125 -20.8125 L 8.046875 -20.8125 L 8.046875 -18.90625 L 8.140625 -18.90625 C 8.753906 -19.832031 9.539062 -20.492188 10.5 -20.890625 C 11.46875 -21.285156 12.488281 -21.484375 13.5625 -21.484375 C 15.957031 -21.484375 17.753906 -20.753906 18.953125 -19.296875 C 20.160156 -17.847656 20.765625 -15.707031 20.765625 -12.875 Z M 20.765625 0 "/></g></g></g><g fill="#2e7d32" fill-opacity="1"><g transform="translate(192.489279, 60.615226)"><g/></g></g><g fill="#2e7d32" fill-opacity="1"><g transform="translate(211.773057, 60.615226)"><g/></g></g><g fill="#2e7d32" fill-opacity="1"><g transform="translate(231.063924, 60.615226)"><g><path d="M 8.765625 -27.84375 L 8.765625 -20.8125 L 12.421875 -20.8125 L 12.421875 -15.8125 L 8.765625 -15.8125 L 8.765625 0 L 2.84375 0 L 2.84375 -15.8125 L 0.8125 -15.8125 L 0.8125 -20.8125 L 2.84375 -20.8125 L 2.84375 -27.84375 Z M 8.765625 -27.84375 "/></g></g></g><g fill="#2e7d32" fill-opacity="1"><g transform="translate(249.712009, 60.615226)"><g><path d="M 0.671875 -10.375 C 0.671875 -13.65625 1.703125 -16.328125 3.765625 -18.390625 C 5.828125 -20.453125 8.441406 -21.484375 11.609375 -21.484375 C 14.828125 -21.484375 17.453125 -20.4375 19.484375 -18.34375 C 21.523438 -16.257812 22.546875 -13.601562 22.546875 -10.375 C 22.546875 -7.132812 21.519531 -4.484375 19.46875 -2.421875 C 17.425781 -0.359375 14.804688 0.671875 11.609375 0.671875 C 8.421875 0.671875 5.800781 -0.363281 3.75 -2.4375 C 1.695312 -4.507812 0.671875 -7.15625 0.671875 -10.375 Z M 11.5625 -16.234375 C 10.238281 -16.234375 9.09375 -15.660156 8.125 -14.515625 C 7.164062 -13.367188 6.6875 -11.988281 6.6875 -10.375 C 6.6875 -8.820312 7.164062 -7.46875 8.125 -6.3125 C 9.09375 -5.15625 10.253906 -4.578125 11.609375 -4.578125 C 13.023438 -4.578125 14.195312 -5.15625 15.125 -6.3125 C 16.0625 -7.46875 16.53125 -8.820312 16.53125 -10.375 C 16.53125 -11.90625 16.066406 -13.265625 15.140625 -14.453125 C 14.222656 -15.640625 13.03125 -16.234375 11.5625 -16.234375 Z M 11.5625 -16.234375 "/></g></g></g><g fill="#2e7d32" fill-opacity="1"><g transform="translate(279.972083, 60.615226)"><g><path d="M 15.046875 -15.46875 C 14.304688 -15.976562 13.484375 -16.234375 12.578125 -16.234375 C 11.054688 -16.234375 9.921875 -15.71875 9.171875 -14.6875 C 8.421875 -13.65625 8.046875 -11.953125 8.046875 -9.578125 L 8.046875 0 L 2.125 0 L 2.125 -20.8125 L 8.046875 -20.8125 L 8.046875 -18.640625 L 8.140625 -18.640625 C 8.734375 -19.546875 9.46875 -20.242188 10.34375 -20.734375 C 11.21875 -21.234375 12.207031 -21.484375 13.3125 -21.484375 C 14.125 -21.453125 14.941406 -21.28125 15.765625 -20.96875 Z M 15.046875 -15.46875 "/></g></g></g><g fill="#2e7d32" fill-opacity="1"><g transform="translate(62.092624, 76.086145)"><g><path d="M 3.3125 -7.859375 C 4.332031 -7.859375 5.070312 -7.648438 5.53125 -7.234375 C 6 -6.816406 6.234375 -6.234375 6.234375 -5.484375 C 6.234375 -5.148438 6.179688 -4.828125 6.078125 -4.515625 C 5.972656 -4.210938 5.800781 -3.941406 5.5625 -3.703125 C 5.320312 -3.472656 5.003906 -3.289062 4.609375 -3.15625 C 4.210938 -3.019531 3.726562 -2.953125 3.15625 -2.953125 L 2.328125 -2.953125 L 2.328125 0 L 1.03125 0 L 1.03125 -7.859375 Z M 3.234375 -6.796875 L 2.328125 -6.796875 L 2.328125 -4.015625 L 3.03125 -4.015625 C 3.4375 -4.015625 3.78125 -4.0625 4.0625 -4.15625 C 4.34375 -4.257812 4.554688 -4.414062 4.703125 -4.625 C 4.847656 -4.832031 4.921875 -5.101562 4.921875 -5.4375 C 4.921875 -5.894531 4.785156 -6.234375 4.515625 -6.453125 C 4.242188 -6.679688 3.816406 -6.796875 3.234375 -6.796875 Z M 3.234375 -6.796875 "/></g></g></g><g fill="#2e7d32" fill-opacity="1"><g transform="translate(70.088682, 76.086145)"><g><path d="M 3.234375 -6.0625 C 3.992188 -6.0625 4.566406 -5.894531 4.953125 -5.5625 C 5.335938 -5.226562 5.53125 -4.707031 5.53125 -4 L 5.53125 0 L 4.625 0 L 4.390625 -0.84375 L 4.34375 -0.84375 C 4.175781 -0.625 4 -0.445312 3.8125 -0.3125 C 3.632812 -0.175781 3.425781 -0.0703125 3.1875 0 C 2.957031 0.0703125 2.675781 0.109375 2.34375 0.109375 C 1.988281 0.109375 1.671875 0.046875 1.390625 -0.078125 C 1.109375 -0.210938 0.882812 -0.414062 0.71875 -0.6875 C 0.5625 -0.957031 0.484375 -1.296875 0.484375 -1.703125 C 0.484375 -2.316406 0.710938 -2.78125 1.171875 -3.09375 C 1.628906 -3.40625 2.320312 -3.578125 3.25 -3.609375 L 4.28125 -3.640625 L 4.28125 -3.953125 C 4.28125 -4.367188 4.179688 -4.660156 3.984375 -4.828125 C 3.796875 -5.003906 3.523438 -5.09375 3.171875 -5.09375 C 2.878906 -5.09375 2.59375 -5.050781 2.3125 -4.96875 C 2.03125 -4.882812 1.757812 -4.78125 1.5 -4.65625 L 1.09375 -5.546875 C 1.375 -5.703125 1.703125 -5.828125 2.078125 -5.921875 C 2.453125 -6.015625 2.835938 -6.0625 3.234375 -6.0625 Z M 4.265625 -2.84375 L 3.5 -2.8125 C 2.875 -2.789062 2.429688 -2.679688 2.171875 -2.484375 C 1.921875 -2.296875 1.796875 -2.035156 1.796875 -1.703125 C 1.796875 -1.410156 1.878906 -1.195312 2.046875 -1.0625 C 2.222656 -0.925781 2.457031 -0.859375 2.75 -0.859375 C 3.1875 -0.859375 3.546875 -0.984375 3.828125 -1.234375 C 4.117188 -1.484375 4.265625 -1.847656 4.265625 -2.328125 Z M 4.265625 -2.84375 "/></g></g></g><g fill="#2e7d32" fill-opacity="1"><g transform="translate(77.702796, 76.086145)"><g><path d="M 3.921875 -6.0625 C 4.023438 -6.0625 4.132812 -6.054688 4.25 -6.046875 C 4.363281 -6.035156 4.46875 -6.023438 4.5625 -6.015625 L 4.4375 -4.828125 C 4.363281 -4.847656 4.269531 -4.863281 4.15625 -4.875 C 4.050781 -4.882812 3.957031 -4.890625 3.875 -4.890625 C 3.644531 -4.890625 3.425781 -4.851562 3.21875 -4.78125 C 3.019531 -4.707031 2.835938 -4.59375 2.671875 -4.4375 C 2.515625 -4.289062 2.390625 -4.109375 2.296875 -3.890625 C 2.210938 -3.671875 2.171875 -3.410156 2.171875 -3.109375 L 2.171875 0 L 0.90625 0 L 0.90625 -5.953125 L 1.890625 -5.953125 L 2.0625 -4.90625 L 2.125 -4.90625 C 2.238281 -5.113281 2.382812 -5.304688 2.5625 -5.484375 C 2.738281 -5.660156 2.941406 -5.800781 3.171875 -5.90625 C 3.398438 -6.007812 3.648438 -6.0625 3.921875 -6.0625 Z M 3.921875 -6.0625 "/></g></g></g><g fill="#2e7d32" fill-opacity="1"><g transform="translate(83.681563, 76.086145)"><g><path d="M 3.125 -0.921875 C 3.28125 -0.921875 3.4375 -0.929688 3.59375 -0.953125 C 3.757812 -0.984375 3.910156 -1.023438 4.046875 -1.078125 L 4.046875 -0.109375 C 3.910156 -0.046875 3.726562 0.00390625 3.5 0.046875 C 3.28125 0.0859375 3.050781 0.109375 2.8125 0.109375 C 2.476562 0.109375 2.175781 0.0507812 1.90625 -0.0625 C 1.632812 -0.175781 1.421875 -0.367188 1.265625 -0.640625 C 1.109375 -0.921875 1.03125 -1.304688 1.03125 -1.796875 L 1.03125 -4.984375 L 0.21875 -4.984375 L 0.21875 -5.5625 L 1.09375 -6 L 1.5 -7.28125 L 2.296875 -7.28125 L 2.296875 -5.953125 L 4 -5.953125 L 4 -4.984375 L 2.296875 -4.984375 L 2.296875 -1.8125 C 2.296875 -1.507812 2.367188 -1.285156 2.515625 -1.140625 C 2.671875 -0.992188 2.875 -0.921875 3.125 -0.921875 Z M 3.125 -0.921875 "/></g></g></g><g fill="#2e7d32" fill-opacity="1"><g transform="translate(89.262252, 76.086145)"><g><path d="M 4 -6.0625 C 4.675781 -6.0625 5.203125 -5.890625 5.578125 -5.546875 C 5.953125 -5.203125 6.140625 -4.648438 6.140625 -3.890625 L 6.140625 0 L 4.875 0 L 4.875 -3.640625 C 4.875 -4.109375 4.773438 -4.457031 4.578125 -4.6875 C 4.390625 -4.914062 4.097656 -5.03125 3.703125 -5.03125 C 3.128906 -5.03125 2.726562 -4.851562 2.5 -4.5 C 2.28125 -4.144531 2.171875 -3.628906 2.171875 -2.953125 L 2.171875 0 L 0.90625 0 L 0.90625 -5.953125 L 1.890625 -5.953125 L 2.0625 -5.140625 L 2.140625 -5.140625 C 2.265625 -5.347656 2.421875 -5.519531 2.609375 -5.65625 C 2.804688 -5.789062 3.023438 -5.890625 3.265625 -5.953125 C 3.503906 -6.023438 3.75 -6.0625 4 -6.0625 Z M 4 -6.0625 "/></g></g></g><g fill="#2e7d32" fill-opacity="1"><g transform="translate(97.484246, 76.086145)"><g><path d="M 3.28125 -6.0625 C 3.8125 -6.0625 4.265625 -5.953125 4.640625 -5.734375 C 5.023438 -5.515625 5.316406 -5.203125 5.515625 -4.796875 C 5.722656 -4.398438 5.828125 -3.921875 5.828125 -3.359375 L 5.828125 -2.6875 L 1.84375 -2.6875 C 1.863281 -2.113281 2.019531 -1.671875 2.3125 -1.359375 C 2.613281 -1.046875 3.03125 -0.890625 3.5625 -0.890625 C 3.9375 -0.890625 4.273438 -0.925781 4.578125 -1 C 4.890625 -1.070312 5.207031 -1.179688 5.53125 -1.328125 L 5.53125 -0.296875 C 5.226562 -0.160156 4.921875 -0.0625 4.609375 0 C 4.304688 0.0703125 3.9375 0.109375 3.5 0.109375 C 2.914062 0.109375 2.398438 -0.00390625 1.953125 -0.234375 C 1.515625 -0.460938 1.171875 -0.800781 0.921875 -1.25 C 0.671875 -1.707031 0.546875 -2.269531 0.546875 -2.9375 C 0.546875 -3.601562 0.660156 -4.164062 0.890625 -4.625 C 1.117188 -5.09375 1.4375 -5.445312 1.84375 -5.6875 C 2.25 -5.9375 2.726562 -6.0625 3.28125 -6.0625 Z M 3.28125 -5.109375 C 2.875 -5.109375 2.546875 -4.976562 2.296875 -4.71875 C 2.054688 -4.46875 1.914062 -4.09375 1.875 -3.59375 L 4.59375 -3.59375 C 4.582031 -3.894531 4.53125 -4.160156 4.4375 -4.390625 C 4.34375 -4.617188 4.195312 -4.796875 4 -4.921875 C 3.8125 -5.046875 3.570312 -5.109375 3.28125 -5.109375 Z M 3.28125 -5.109375 "/></g></g></g><g fill="#2e7d32" fill-opacity="1"><g transform="translate(105.055325, 76.086145)"><g><path d="M 3.921875 -6.0625 C 4.023438 -6.0625 4.132812 -6.054688 4.25 -6.046875 C 4.363281 -6.035156 4.46875 -6.023438 4.5625 -6.015625 L 4.4375 -4.828125 C 4.363281 -4.847656 4.269531 -4.863281 4.15625 -4.875 C 4.050781 -4.882812 3.957031 -4.890625 3.875 -4.890625 C 3.644531 -4.890625 3.425781 -4.851562 3.21875 -4.78125 C 3.019531 -4.707031 2.835938 -4.59375 2.671875 -4.4375 C 2.515625 -4.289062 2.390625 -4.109375 2.296875 -3.890625 C 2.210938 -3.671875 2.171875 -3.410156 2.171875 -3.109375 L 2.171875 0 L 0.90625 0 L 0.90625 -5.953125 L 1.890625 -5.953125 L 2.0625 -4.90625 L 2.125 -4.90625 C 2.238281 -5.113281 2.382812 -5.304688 2.5625 -5.484375 C 2.738281 -5.660156 2.941406 -5.800781 3.171875 -5.90625 C 3.398438 -6.007812 3.648438 -6.0625 3.921875 -6.0625 Z M 3.921875 -6.0625 "/></g></g></g><g fill="#2e7d32" fill-opacity="1"><g transform="translate(111.034092, 76.086145)"><g/></g></g><g fill="#2e7d32" fill-opacity="1"><g transform="translate(115.1193, 76.086145)"><g><path d="M 2.3125 0 L 1.03125 0 L 1.03125 -7.859375 L 5.46875 -7.859375 L 5.46875 -6.78125 L 2.3125 -6.78125 L 2.3125 -4.328125 L 5.265625 -4.328125 L 5.265625 -3.25 L 2.3125 -3.25 Z M 2.3125 0 "/></g></g></g><g fill="#2e7d32" fill-opacity="1"><g transform="translate(122.211614, 76.086145)"><g><path d="M 6.171875 -2.984375 C 6.171875 -2.492188 6.101562 -2.054688 5.96875 -1.671875 C 5.84375 -1.285156 5.65625 -0.960938 5.40625 -0.703125 C 5.164062 -0.441406 4.867188 -0.238281 4.515625 -0.09375 C 4.171875 0.0390625 3.78125 0.109375 3.34375 0.109375 C 2.9375 0.109375 2.5625 0.0390625 2.21875 -0.09375 C 1.875 -0.238281 1.578125 -0.441406 1.328125 -0.703125 C 1.085938 -0.960938 0.894531 -1.285156 0.75 -1.671875 C 0.613281 -2.054688 0.546875 -2.492188 0.546875 -2.984375 C 0.546875 -3.640625 0.660156 -4.195312 0.890625 -4.65625 C 1.117188 -5.113281 1.441406 -5.460938 1.859375 -5.703125 C 2.285156 -5.941406 2.796875 -6.0625 3.390625 -6.0625 C 3.929688 -6.0625 4.410156 -5.941406 4.828125 -5.703125 C 5.253906 -5.460938 5.582031 -5.113281 5.8125 -4.65625 C 6.050781 -4.195312 6.171875 -3.640625 6.171875 -2.984375 Z M 1.859375 -2.984375 C 1.859375 -2.554688 1.910156 -2.1875 2.015625 -1.875 C 2.117188 -1.570312 2.28125 -1.335938 2.5 -1.171875 C 2.726562 -1.003906 3.015625 -0.921875 3.359375 -0.921875 C 3.710938 -0.921875 4 -1.003906 4.21875 -1.171875 C 4.445312 -1.335938 4.613281 -1.570312 4.71875 -1.875 C 4.820312 -2.1875 4.875 -2.554688 4.875 -2.984375 C 4.875 -3.421875 4.820312 -3.789062 4.71875 -4.09375 C 4.613281 -4.394531 4.445312 -4.625 4.21875 -4.78125 C 4 -4.945312 3.710938 -5.03125 3.359375 -5.03125 C 2.835938 -5.03125 2.457031 -4.851562 2.21875 -4.5 C 1.976562 -4.144531 1.859375 -3.640625 1.859375 -2.984375 Z M 1.859375 -2.984375 "/></g></g></g><g fill="#2e7d32" fill-opacity="1"><g transform="translate(130.159253, 76.086145)"><g><path d="M 3.921875 -6.0625 C 4.023438 -6.0625 4.132812 -6.054688 4.25 -6.046875 C 4.363281 -6.035156 4.46875 -6.023438 4.5625 -6.015625 L 4.4375 -4.828125 C 4.363281 -4.847656 4.269531 -4.863281 4.15625 -4.875 C 4.050781 -4.882812 3.957031 -4.890625 3.875 -4.890625 C 3.644531 -4.890625 3.425781 -4.851562 3.21875 -4.78125 C 3.019531 -4.707031 2.835938 -4.59375 2.671875 -4.4375 C 2.515625 -4.289062 2.390625 -4.109375 2.296875 -3.890625 C 2.210938 -3.671875 2.171875 -3.410156 2.171875 -3.109375 L 2.171875 0 L 0.90625 0 L 0.90625 -5.953125 L 1.890625 -5.953125 L 2.0625 -4.90625 L 2.125 -4.90625 C 2.238281 -5.113281 2.382812 -5.304688 2.5625 -5.484375 C 2.738281 -5.660156 2.941406 -5.800781 3.171875 -5.90625 C 3.398438 -6.007812 3.648438 -6.0625 3.921875 -6.0625 Z M 3.921875 -6.0625 "/></g></g></g><g fill="#2e7d32" fill-opacity="1"><g transform="translate(136.13802, 76.086145)"><g/></g></g><g fill="#2e7d32" fill-opacity="1"><g transform="translate(140.223228, 76.086145)"><g><path d="M 4.203125 -4.265625 L 7.140625 -4.265625 L 7.140625 -0.328125 C 6.734375 -0.191406 6.304688 -0.0820312 5.859375 0 C 5.421875 0.0703125 4.925781 0.109375 4.375 0.109375 C 3.570312 0.109375 2.894531 -0.046875 2.34375 -0.359375 C 1.789062 -0.679688 1.367188 -1.144531 1.078125 -1.75 C 0.796875 -2.351562 0.65625 -3.082031 0.65625 -3.9375 C 0.65625 -4.757812 0.8125 -5.472656 1.125 -6.078125 C 1.445312 -6.679688 1.910156 -7.148438 2.515625 -7.484375 C 3.128906 -7.816406 3.875 -7.984375 4.75 -7.984375 C 5.175781 -7.984375 5.585938 -7.9375 5.984375 -7.84375 C 6.378906 -7.757812 6.742188 -7.644531 7.078125 -7.5 L 6.625 -6.4375 C 6.363281 -6.5625 6.066406 -6.664062 5.734375 -6.75 C 5.410156 -6.84375 5.070312 -6.890625 4.71875 -6.890625 C 4.15625 -6.890625 3.664062 -6.765625 3.25 -6.515625 C 2.84375 -6.273438 2.53125 -5.929688 2.3125 -5.484375 C 2.09375 -5.046875 1.984375 -4.523438 1.984375 -3.921875 C 1.984375 -3.335938 2.070312 -2.820312 2.25 -2.375 C 2.425781 -1.9375 2.703125 -1.59375 3.078125 -1.34375 C 3.453125 -1.101562 3.9375 -0.984375 4.53125 -0.984375 C 4.832031 -0.984375 5.085938 -1 5.296875 -1.03125 C 5.503906 -1.0625 5.695312 -1.097656 5.875 -1.140625 L 5.875 -3.171875 L 4.203125 -3.171875 Z M 4.203125 -4.265625 "/></g></g></g><g fill="#2e7d32" fill-opacity="1"><g transform="translate(149.440407, 76.086145)"><g><path d="M 3.921875 -6.0625 C 4.023438 -6.0625 4.132812 -6.054688 4.25 -6.046875 C 4.363281 -6.035156 4.46875 -6.023438 4.5625 -6.015625 L 4.4375 -4.828125 C 4.363281 -4.847656 4.269531 -4.863281 4.15625 -4.875 C 4.050781 -4.882812 3.957031 -4.890625 3.875 -4.890625 C 3.644531 -4.890625 3.425781 -4.851562 3.21875 -4.78125 C 3.019531 -4.707031 2.835938 -4.59375 2.671875 -4.4375 C 2.515625 -4.289062 2.390625 -4.109375 2.296875 -3.890625 C 2.210938 -3.671875 2.171875 -3.410156 2.171875 -3.109375 L 2.171875 0 L 0.90625 0 L 0.90625 -5.953125 L 1.890625 -5.953125 L 2.0625 -4.90625 L 2.125 -4.90625 C 2.238281 -5.113281 2.382812 -5.304688 2.5625 -5.484375 C 2.738281 -5.660156 2.941406 -5.800781 3.171875 -5.90625 C 3.398438 -6.007812 3.648438 -6.0625 3.921875 -6.0625 Z M 3.921875 -6.0625 "/></g></g></g><g fill="#2e7d32" fill-opacity="1"><g transform="translate(155.419169, 76.086145)"><g><path d="M 3.28125 -6.0625 C 3.8125 -6.0625 4.265625 -5.953125 4.640625 -5.734375 C 5.023438 -5.515625 5.316406 -5.203125 5.515625 -4.796875 C 5.722656 -4.398438 5.828125 -3.921875 5.828125 -3.359375 L 5.828125 -2.6875 L 1.84375 -2.6875 C 1.863281 -2.113281 2.019531 -1.671875 2.3125 -1.359375 C 2.613281 -1.046875 3.03125 -0.890625 3.5625 -0.890625 C 3.9375 -0.890625 4.273438 -0.925781 4.578125 -1 C 4.890625 -1.070312 5.207031 -1.179688 5.53125 -1.328125 L 5.53125 -0.296875 C 5.226562 -0.160156 4.921875 -0.0625 4.609375 0 C 4.304688 0.0703125 3.9375 0.109375 3.5 0.109375 C 2.914062 0.109375 2.398438 -0.00390625 1.953125 -0.234375 C 1.515625 -0.460938 1.171875 -0.800781 0.921875 -1.25 C 0.671875 -1.707031 0.546875 -2.269531 0.546875 -2.9375 C 0.546875 -3.601562 0.660156 -4.164062 0.890625 -4.625 C 1.117188 -5.09375 1.4375 -5.445312 1.84375 -5.6875 C 2.25 -5.9375 2.726562 -6.0625 3.28125 -6.0625 Z M 3.28125 -5.109375 C 2.875 -5.109375 2.546875 -4.976562 2.296875 -4.71875 C 2.054688 -4.46875 1.914062 -4.09375 1.875 -3.59375 L 4.59375 -3.59375 C 4.582031 -3.894531 4.53125 -4.160156 4.4375 -4.390625 C 4.34375 -4.617188 4.195312 -4.796875 4 -4.921875 C 3.8125 -5.046875 3.570312 -5.109375 3.28125 -5.109375 Z M 3.28125 -5.109375 "/></g></g></g><g fill="#2e7d32" fill-opacity="1"><g transform="translate(162.990243, 76.086145)"><g><path d="M 3.28125 -6.0625 C 3.8125 -6.0625 4.265625 -5.953125 4.640625 -5.734375 C 5.023438 -5.515625 5.316406 -5.203125 5.515625 -4.796875 C 5.722656 -4.398438 5.828125 -3.921875 5.828125 -3.359375 L 5.828125 -2.6875 L 1.84375 -2.6875 C 1.863281 -2.113281 2.019531 -1.671875 2.3125 -1.359375 C 2.613281 -1.046875 3.03125 -0.890625 3.5625 -0.890625 C 3.9375 -0.890625 4.273438 -0.925781 4.578125 -1 C 4.890625 -1.070312 5.207031 -1.179688 5.53125 -1.328125 L 5.53125 -0.296875 C 5.226562 -0.160156 4.921875 -0.0625 4.609375 0 C 4.304688 0.0703125 3.9375 0.109375 3.5 0.109375 C 2.914062 0.109375 2.398438 -0.00390625 1.953125 -0.234375 C 1.515625 -0.460938 1.171875 -0.800781 0.921875 -1.25 C 0.671875 -1.707031 0.546875 -2.269531 0.546875 -2.9375 C 0.546875 -3.601562 0.660156 -4.164062 0.890625 -4.625 C 1.117188 -5.09375 1.4375 -5.445312 1.84375 -5.6875 C 2.25 -5.9375 2.726562 -6.0625 3.28125 -6.0625 Z M 3.28125 -5.109375 C 2.875 -5.109375 2.546875 -4.976562 2.296875 -4.71875 C 2.054688 -4.46875 1.914062 -4.09375 1.875 -3.59375 L 4.59375 -3.59375 C 4.582031 -3.894531 4.53125 -4.160156 4.4375 -4.390625 C 4.34375 -4.617188 4.195312 -4.796875 4 -4.921875 C 3.8125 -5.046875 3.570312 -5.109375 3.28125 -5.109375 Z M 3.28125 -5.109375 "/></g></g></g><g fill="#2e7d32" fill-opacity="1"><g transform="translate(170.561316, 76.086145)"><g><path d="M 4 -6.0625 C 4.675781 -6.0625 5.203125 -5.890625 5.578125 -5.546875 C 5.953125 -5.203125 6.140625 -4.648438 6.140625 -3.890625 L 6.140625 0 L 4.875 0 L 4.875 -3.640625 C 4.875 -4.109375 4.773438 -4.457031 4.578125 -4.6875 C 4.390625 -4.914062 4.097656 -5.03125 3.703125 -5.03125 C 3.128906 -5.03125 2.726562 -4.851562 2.5 -4.5 C 2.28125 -4.144531 2.171875 -3.628906 2.171875 -2.953125 L 2.171875 0 L 0.90625 0 L 0.90625 -5.953125 L 1.890625 -5.953125 L 2.0625 -5.140625 L 2.140625 -5.140625 C 2.265625 -5.347656 2.421875 -5.519531 2.609375 -5.65625 C 2.804688 -5.789062 3.023438 -5.890625 3.265625 -5.953125 C 3.503906 -6.023438 3.75 -6.0625 4 -6.0625 Z M 4 -6.0625 "/></g></g></g><g fill="#2e7d32" fill-opacity="1"><g transform="translate(178.783315, 76.086145)"><g/></g></g><g fill="#2e7d32" fill-opacity="1"><g transform="translate(182.868518, 76.086145)"><g><path d="M 1.03125 0 L 1.03125 -7.859375 L 2.328125 -7.859375 L 2.328125 0 Z M 1.03125 0 "/></g></g></g><g fill="#2e7d32" fill-opacity="1"><g transform="translate(187.454023, 76.086145)"><g><path d="M 4 -6.0625 C 4.675781 -6.0625 5.203125 -5.890625 5.578125 -5.546875 C 5.953125 -5.203125 6.140625 -4.648438 6.140625 -3.890625 L 6.140625 0 L 4.875 0 L 4.875 -3.640625 C 4.875 -4.109375 4.773438 -4.457031 4.578125 -4.6875 C 4.390625 -4.914062 4.097656 -5.03125 3.703125 -5.03125 C 3.128906 -5.03125 2.726562 -4.851562 2.5 -4.5 C 2.28125 -4.144531 2.171875 -3.628906 2.171875 -2.953125 L 2.171875 0 L 0.90625 0 L 0.90625 -5.953125 L 1.890625 -5.953125 L 2.0625 -5.140625 L 2.140625 -5.140625 C 2.265625 -5.347656 2.421875 -5.519531 2.609375 -5.65625 C 2.804688 -5.789062 3.023438 -5.890625 3.265625 -5.953125 C 3.503906 -6.023438 3.75 -6.0625 4 -6.0625 Z M 4 -6.0625 "/></g></g></g><g fill="#2e7d32" fill-opacity="1"><g transform="translate(195.676022, 76.086145)"><g><path d="M 3.125 -0.921875 C 3.28125 -0.921875 3.4375 -0.929688 3.59375 -0.953125 C 3.757812 -0.984375 3.910156 -1.023438 4.046875 -1.078125 L 4.046875 -0.109375 C 3.910156 -0.046875 3.726562 0.00390625 3.5 0.046875 C 3.28125 0.0859375 3.050781 0.109375 2.8125 0.109375 C 2.476562 0.109375 2.175781 0.0507812 1.90625 -0.0625 C 1.632812 -0.175781 1.421875 -0.367188 1.265625 -0.640625 C 1.109375 -0.921875 1.03125 -1.304688 1.03125 -1.796875 L 1.03125 -4.984375 L 0.21875 -4.984375 L 0.21875 -5.5625 L 1.09375 -6 L 1.5 -7.28125 L 2.296875 -7.28125 L 2.296875 -5.953125 L 4 -5.953125 L 4 -4.984375 L 2.296875 -4.984375 L 2.296875 -1.8125 C 2.296875 -1.507812 2.367188 -1.285156 2.515625 -1.140625 C 2.671875 -0.992188 2.875 -0.921875 3.125 -0.921875 Z M 3.125 -0.921875 "/></g></g></g><g fill="#2e7d32" fill-opacity="1"><g transform="translate(201.256717, 76.086145)"><g><path d="M 3.28125 -6.0625 C 3.8125 -6.0625 4.265625 -5.953125 4.640625 -5.734375 C 5.023438 -5.515625 5.316406 -5.203125 5.515625 -4.796875 C 5.722656 -4.398438 5.828125 -3.921875 5.828125 -3.359375 L 5.828125 -2.6875 L 1.84375 -2.6875 C 1.863281 -2.113281 2.019531 -1.671875 2.3125 -1.359375 C 2.613281 -1.046875 3.03125 -0.890625 3.5625 -0.890625 C 3.9375 -0.890625 4.273438 -0.925781 4.578125 -1 C 4.890625 -1.070312 5.207031 -1.179688 5.53125 -1.328125 L 5.53125 -0.296875 C 5.226562 -0.160156 4.921875 -0.0625 4.609375 0 C 4.304688 0.0703125 3.9375 0.109375 3.5 0.109375 C 2.914062 0.109375 2.398438 -0.00390625 1.953125 -0.234375 C 1.515625 -0.460938 1.171875 -0.800781 0.921875 -1.25 C 0.671875 -1.707031 0.546875 -2.269531 0.546875 -2.9375 C 0.546875 -3.601562 0.660156 -4.164062 0.890625 -4.625 C 1.117188 -5.09375 1.4375 -5.445312 1.84375 -5.6875 C 2.25 -5.9375 2.726562 -6.0625 3.28125 -6.0625 Z M 3.28125 -5.109375 C 2.875 -5.109375 2.546875 -4.976562 2.296875 -4.71875 C 2.054688 -4.46875 1.914062 -4.09375 1.875 -3.59375 L 4.59375 -3.59375 C 4.582031 -3.894531 4.53125 -4.160156 4.4375 -4.390625 C 4.34375 -4.617188 4.195312 -4.796875 4 -4.921875 C 3.8125 -5.046875 3.570312 -5.109375 3.28125 -5.109375 Z M 3.28125 -5.109375 "/></g></g></g><g fill="#2e7d32" fill-opacity="1"><g transform="translate(208.82779, 76.086145)"><g><path d="M 2.609375 2.640625 C 1.796875 2.640625 1.175781 2.492188 0.75 2.203125 C 0.320312 1.921875 0.109375 1.515625 0.109375 0.984375 C 0.109375 0.617188 0.222656 0.3125 0.453125 0.0625 C 0.679688 -0.1875 1.007812 -0.363281 1.4375 -0.46875 C 1.269531 -0.53125 1.128906 -0.640625 1.015625 -0.796875 C 0.898438 -0.953125 0.84375 -1.125 0.84375 -1.3125 C 0.84375 -1.53125 0.90625 -1.71875 1.03125 -1.875 C 1.15625 -2.03125 1.34375 -2.179688 1.59375 -2.328125 C 1.28125 -2.460938 1.03125 -2.679688 0.84375 -2.984375 C 0.65625 -3.285156 0.5625 -3.640625 0.5625 -4.046875 C 0.5625 -4.472656 0.648438 -4.835938 0.828125 -5.140625 C 1.015625 -5.441406 1.28125 -5.671875 1.625 -5.828125 C 1.976562 -5.992188 2.40625 -6.078125 2.90625 -6.078125 C 3.019531 -6.078125 3.140625 -6.066406 3.265625 -6.046875 C 3.390625 -6.035156 3.503906 -6.019531 3.609375 -6 C 3.722656 -5.988281 3.8125 -5.972656 3.875 -5.953125 L 5.921875 -5.953125 L 5.921875 -5.25 L 4.921875 -5.0625 C 5.015625 -4.925781 5.085938 -4.769531 5.140625 -4.59375 C 5.203125 -4.425781 5.234375 -4.238281 5.234375 -4.03125 C 5.234375 -3.414062 5.019531 -2.929688 4.59375 -2.578125 C 4.164062 -2.222656 3.582031 -2.046875 2.84375 -2.046875 C 2.664062 -2.054688 2.488281 -2.070312 2.3125 -2.09375 C 2.1875 -2.007812 2.085938 -1.921875 2.015625 -1.828125 C 1.953125 -1.734375 1.921875 -1.628906 1.921875 -1.515625 C 1.921875 -1.410156 1.953125 -1.328125 2.015625 -1.265625 C 2.085938 -1.210938 2.191406 -1.171875 2.328125 -1.140625 C 2.460938 -1.117188 2.625 -1.109375 2.8125 -1.109375 L 3.84375 -1.109375 C 4.5 -1.109375 5 -0.96875 5.34375 -0.6875 C 5.6875 -0.414062 5.859375 -0.0078125 5.859375 0.53125 C 5.859375 1.207031 5.578125 1.726562 5.015625 2.09375 C 4.453125 2.457031 3.648438 2.640625 2.609375 2.640625 Z M 2.65625 1.765625 C 3.09375 1.765625 3.460938 1.71875 3.765625 1.625 C 4.066406 1.539062 4.289062 1.414062 4.4375 1.25 C 4.59375 1.09375 4.671875 0.90625 4.671875 0.6875 C 4.671875 0.5 4.625 0.351562 4.53125 0.25 C 4.4375 0.144531 4.289062 0.0703125 4.09375 0.03125 C 3.90625 -0.0078125 3.664062 -0.03125 3.375 -0.03125 L 2.4375 -0.03125 C 2.207031 -0.03125 2 0.00390625 1.8125 0.078125 C 1.632812 0.148438 1.5 0.253906 1.40625 0.390625 C 1.3125 0.535156 1.265625 0.707031 1.265625 0.90625 C 1.265625 1.175781 1.382812 1.382812 1.625 1.53125 C 1.863281 1.6875 2.207031 1.765625 2.65625 1.765625 Z M 2.90625 -2.875 C 3.269531 -2.875 3.539062 -2.972656 3.71875 -3.171875 C 3.894531 -3.378906 3.984375 -3.671875 3.984375 -4.046875 C 3.984375 -4.441406 3.890625 -4.738281 3.703125 -4.9375 C 3.523438 -5.144531 3.253906 -5.25 2.890625 -5.25 C 2.535156 -5.25 2.265625 -5.144531 2.078125 -4.9375 C 1.898438 -4.726562 1.8125 -4.425781 1.8125 -4.03125 C 1.8125 -3.664062 1.898438 -3.378906 2.078125 -3.171875 C 2.265625 -2.972656 2.539062 -2.875 2.90625 -2.875 Z M 2.90625 -2.875 "/></g></g></g><g fill="#2e7d32" fill-opacity="1"><g transform="translate(216.156794, 76.086145)"><g><path d="M 3.921875 -6.0625 C 4.023438 -6.0625 4.132812 -6.054688 4.25 -6.046875 C 4.363281 -6.035156 4.46875 -6.023438 4.5625 -6.015625 L 4.4375 -4.828125 C 4.363281 -4.847656 4.269531 -4.863281 4.15625 -4.875 C 4.050781 -4.882812 3.957031 -4.890625 3.875 -4.890625 C 3.644531 -4.890625 3.425781 -4.851562 3.21875 -4.78125 C 3.019531 -4.707031 2.835938 -4.59375 2.671875 -4.4375 C 2.515625 -4.289062 2.390625 -4.109375 2.296875 -3.890625 C 2.210938 -3.671875 2.171875 -3.410156 2.171875 -3.109375 L 2.171875 0 L 0.90625 0 L 0.90625 -5.953125 L 1.890625 -5.953125 L 2.0625 -4.90625 L 2.125 -4.90625 C 2.238281 -5.113281 2.382812 -5.304688 2.5625 -5.484375 C 2.738281 -5.660156 2.941406 -5.800781 3.171875 -5.90625 C 3.398438 -6.007812 3.648438 -6.0625 3.921875 -6.0625 Z M 3.921875 -6.0625 "/></g></g></g><g fill="#2e7d32" fill-opacity="1"><g transform="translate(222.135557, 76.086145)"><g><path d="M 2.171875 -5.953125 L 2.171875 0 L 0.90625 0 L 0.90625 -5.953125 Z M 1.546875 -8.234375 C 1.734375 -8.234375 1.898438 -8.179688 2.046875 -8.078125 C 2.191406 -7.972656 2.265625 -7.796875 2.265625 -7.546875 C 2.265625 -7.296875 2.191406 -7.113281 2.046875 -7 C 1.898438 -6.894531 1.734375 -6.84375 1.546875 -6.84375 C 1.347656 -6.84375 1.175781 -6.894531 1.03125 -7 C 0.894531 -7.113281 0.828125 -7.296875 0.828125 -7.546875 C 0.828125 -7.796875 0.894531 -7.972656 1.03125 -8.078125 C 1.175781 -8.179688 1.347656 -8.234375 1.546875 -8.234375 Z M 1.546875 -8.234375 "/></g></g></g><g fill="#2e7d32" fill-opacity="1"><g transform="translate(226.430563, 76.086145)"><g><path d="M 3.125 -0.921875 C 3.28125 -0.921875 3.4375 -0.929688 3.59375 -0.953125 C 3.757812 -0.984375 3.910156 -1.023438 4.046875 -1.078125 L 4.046875 -0.109375 C 3.910156 -0.046875 3.726562 0.00390625 3.5 0.046875 C 3.28125 0.0859375 3.050781 0.109375 2.8125 0.109375 C 2.476562 0.109375 2.175781 0.0507812 1.90625 -0.0625 C 1.632812 -0.175781 1.421875 -0.367188 1.265625 -0.640625 C 1.109375 -0.921875 1.03125 -1.304688 1.03125 -1.796875 L 1.03125 -4.984375 L 0.21875 -4.984375 L 0.21875 -5.5625 L 1.09375 -6 L 1.5 -7.28125 L 2.296875 -7.28125 L 2.296875 -5.953125 L 4 -5.953125 L 4 -4.984375 L 2.296875 -4.984375 L 2.296875 -1.8125 C 2.296875 -1.507812 2.367188 -1.285156 2.515625 -1.140625 C 2.671875 -0.992188 2.875 -0.921875 3.125 -0.921875 Z M 3.125 -0.921875 "/></g></g></g><g fill="#2e7d32" fill-opacity="1"><g transform="translate(232.011257, 76.086145)"><g><path d="M 0 -5.953125 L 1.375 -5.953125 L 2.609375 -2.5625 C 2.660156 -2.40625 2.707031 -2.25 2.75 -2.09375 C 2.789062 -1.945312 2.828125 -1.800781 2.859375 -1.65625 C 2.898438 -1.519531 2.929688 -1.378906 2.953125 -1.234375 L 2.984375 -1.234375 C 3.015625 -1.421875 3.0625 -1.628906 3.125 -1.859375 C 3.195312 -2.085938 3.273438 -2.320312 3.359375 -2.5625 L 4.53125 -5.953125 L 5.890625 -5.953125 L 3.34375 0.8125 C 3.195312 1.207031 3.015625 1.539062 2.796875 1.8125 C 2.585938 2.082031 2.335938 2.285156 2.046875 2.421875 C 1.753906 2.566406 1.421875 2.640625 1.046875 2.640625 C 0.867188 2.640625 0.710938 2.628906 0.578125 2.609375 C 0.441406 2.597656 0.328125 2.582031 0.234375 2.5625 L 0.234375 1.546875 C 0.316406 1.566406 0.414062 1.582031 0.53125 1.59375 C 0.644531 1.601562 0.757812 1.609375 0.875 1.609375 C 1.101562 1.609375 1.300781 1.5625 1.46875 1.46875 C 1.632812 1.382812 1.773438 1.257812 1.890625 1.09375 C 2.003906 0.9375 2.097656 0.753906 2.171875 0.546875 L 2.375 -0.015625 Z M 0 -5.953125 "/></g></g></g></svg>